<svg id="Filled" height="512" viewBox="0 0 512 512" width="512" xmlns="http://www.w3.org/2000/svg"><circle cx="256" cy="256" fill="#f7b030" r="232"/><circle cx="256" cy="256" fill="#e9eef2" r="200"/><circle cx="256" cy="256" fill="#eb423f" r="24"/><path d="m256 16a240 240 0 0 0 -169.706 409.705 240 240 0 1 0 339.412-339.405 238.433 238.433 0 0 0 -169.706-70.3zm158.392 398.392a224 224 0 0 1 -316.784-316.784 224 224 0 0 1 316.784 316.784z"/><path d="m256 48c-114.691 0-208 93.309-208 208s93.309 208 208 208 208-93.309 208-208-93.309-208-208-208zm0 400c-105.869 0-192-86.131-192-192s86.131-192 192-192 192 86.131 192 192-86.131 192-192 192z"/><path d="m256 112a8 8 0 0 0 8-8v-16a8 8 0 0 0 -16 0v16a8 8 0 0 0 8 8z"/><path d="m256 400a8 8 0 0 0 -8 8v16a8 8 0 0 0 16 0v-16a8 8 0 0 0 -8-8z"/><path d="m408 264h16a8 8 0 0 0 0-16h-16a8 8 0 0 0 0 16z"/><path d="m104 248h-16a8 8 0 0 0 0 16h16a8 8 0 0 0 0-16z"/><path d="m369.137 131.549-11.313 11.313a8 8 0 1 0 11.313 11.315l11.314-11.314a8 8 0 0 0 -11.314-11.314z"/><path d="m142.863 357.823-11.314 11.314a8 8 0 0 0 11.314 11.314l11.313-11.313a8 8 0 0 0 -11.313-11.315z"/><path d="m369.137 357.823a8 8 0 0 0 -11.313 11.315l11.313 11.313a8 8 0 0 0 11.314-11.314z"/><path d="m142.863 131.549a8 8 0 0 0 -11.314 11.314l11.314 11.314a8 8 0 0 0 11.313-11.315z"/><path d="m336 168a7.976 7.976 0 0 0 -5.676 2.364l-57.819 58.236a31.911 31.911 0 0 0 -32.528-.278l-34.349-34a8 8 0 1 0 -11.254 11.368l34.2 33.854a32 32 0 1 0 55.137.481l57.97-58.384a8 8 0 0 0 -5.681-13.641zm-80 104a16 16 0 1 1 16-16 16.019 16.019 0 0 1 -16 16z"/></svg>