<svg id="Capa_1" enable-background="new 0 0 512.392 512.392" height="512" viewBox="0 0 512.392 512.392" width="512" xmlns="http://www.w3.org/2000/svg"><path d="m53.023 153.862c7.64 0 13.833-6.193 13.833-13.833v-57.615h-27.666v57.615c0 7.64 6.193 13.833 13.833 13.833z" fill="#ebebeb"/><path d="m67.001 82.548v57.566c0 7.634-6.185 13.829-13.819 13.829-2.518 0-4.876-.669-6.915-1.848 4.127-2.398 6.915-6.865 6.915-11.981v-57.566z" fill="#d3d1d1"/><path d="m64.064 387.602c0-33.46 27.124-60.584 60.584-60.584h240.204c63.048 0 114.158-51.11 114.158-114.158 0-63.048-51.11-114.158-114.158-114.158h-230.515c-15.621 0-28.285 12.664-28.285 28.285 0 15.621 12.664 28.285 28.285 28.285h230.516c31.805 0 57.588 25.783 57.588 57.588 0 31.805-25.783 57.588-57.588 57.588h-247.444c-60.704 0-109.915 49.21-109.915 109.915v14.479c0 60.704 49.21 109.915 109.915 109.915h249.472c15.621 0 28.285-12.664 28.285-28.285 0-15.621-12.664-28.285-28.285-28.285h-242.233c-33.459-.001-60.584-27.125-60.584-60.585z" fill="#5a5a5a"/><circle cx="53.179" cy="52.286" fill="#fb2b3a" r="44.65"/><path d="m97.828 52.281c0 24.661-19.985 44.656-44.646 44.656-13.64 0-25.85-6.115-34.034-15.748 6.195 3.248 13.24 5.086 20.704 5.086 24.661 0 44.656-19.985 44.656-44.646 0-11.022-3.997-21.114-10.622-28.908 14.239 7.464 23.942 22.383 23.942 39.56z" fill="#e41f2d"/><path d="m504.897 349.264c0-32.853-26.364-59.549-59.09-60.085-33.229-.544-60.895 26.482-61.095 59.715-.137 22.802 12.43 42.675 31.035 52.973 3.769 2.086 6.9 5.158 9.229 8.782l13.506 21.01c2.958 4.602 9.685 4.602 12.643 0l13.507-21.011c2.334-3.631 5.477-6.702 9.252-8.794 18.492-10.246 31.013-29.953 31.013-52.59z" fill="#fb2b3a"/><path d="m504.901 349.267c0 22.631-12.529 42.338-31.014 52.583-3.775 2.098-6.917 5.165-9.251 8.796l-13.506 21.014c-2.966 4.6-9.689 4.6-12.647 0l-3.235-5.038c1.71-.455 3.294-1.517 4.381-3.202l13.506-21.013c2.334-3.631 5.477-6.707 9.251-8.796 18.494-10.245 31.014-29.952 31.014-52.592 0-17.576-7.549-33.39-19.581-44.385 18.528 10.227 31.082 29.968 31.082 52.633z" fill="#e41f2d"/><circle cx="444.804" cy="349.264" fill="#ebebeb" r="29.173"/><circle cx="444.806" cy="482.373" fill="#fac600" r="22.384"/><path d="m467.188 482.375c0 12.361-10.022 22.383-22.383 22.383-9.203 0-17.107-5.556-20.544-13.49 2.498.969 5.216 1.499 8.054 1.499 12.361 0 22.383-10.022 22.383-22.383 0-3.168-.66-6.175-1.839-8.893 8.383 3.227 14.329 11.361 14.329 20.884z" fill="#e0ae10"/><circle cx="359.116" cy="212.729" fill="#9c9c9c" r="28.478"/><path d="m387.598 212.729c0 15.728-12.75 28.478-28.478 28.478-10.802 0-20.205-6.015-25.031-14.879 3.397 1.429 7.125 2.218 11.042 2.218 15.728 0 28.478-12.75 28.478-28.478 0-4.926-1.249-9.563-3.457-13.6 10.242 4.308 17.446 14.44 17.446 26.261z" fill="#838383"/><circle cx="131.489" cy="386.707" fill="#9c9c9c" r="28.478"/><path d="m159.971 386.707c0 15.728-12.75 28.478-28.478 28.478-10.802 0-20.205-6.015-25.031-14.879 3.397 1.429 7.125 2.218 11.042 2.218 15.728 0 28.478-12.75 28.478-28.478 0-4.926-1.249-9.563-3.457-13.6 10.241 4.308 17.446 14.44 17.446 26.261z" fill="#838383"/><path d="m444.807 452.495c-16.475 0-29.879 13.403-29.879 29.878s13.404 29.878 29.879 29.878 29.878-13.403 29.878-29.878c-.001-16.475-13.404-29.878-29.878-29.878zm0 44.767c-8.211 0-14.89-6.679-14.89-14.889s6.68-14.89 14.89-14.89 14.889 6.68 14.889 14.89-6.68 14.889-14.889 14.889z"/><path d="m444.805 312.597c-20.218 0-36.667 16.449-36.667 36.667s16.449 36.667 36.667 36.667 36.667-16.449 36.667-36.667-16.449-36.667-36.667-36.667zm0 58.345c-11.954 0-21.679-9.725-21.679-21.678s9.725-21.678 21.679-21.678c11.953 0 21.678 9.725 21.678 21.678s-9.725 21.678-21.678 21.678z"/><path d="m205.112 497.262h-87.703c-56.475 0-102.42-45.946-102.42-102.42v-14.478c0-56.475 45.946-102.42 102.42-102.42h247.444c35.886 0 65.081-29.196 65.081-65.082s-29.196-65.082-65.081-65.082h-15.725c-4.139 0-7.494 3.355-7.494 7.494s3.355 7.494 7.494 7.494h15.725c27.622 0 50.093 22.472 50.093 50.094s-22.471 50.094-50.093 50.094h-247.444c-64.74-.002-117.409 52.668-117.409 117.407v14.478c0 64.74 52.669 117.409 117.409 117.409h87.703c4.139 0 7.494-3.355 7.494-7.494s-3.356-7.494-7.494-7.494z"/><path d="m31.862 99.854v40.263c0 11.754 9.563 21.317 21.317 21.317s21.317-9.563 21.317-21.317v-40.263c18.151-8.167 30.827-26.409 30.827-47.569 0-28.752-23.392-52.144-52.144-52.144s-52.144 23.392-52.144 52.145c0 21.159 12.676 39.402 30.827 47.568zm27.646 40.263c0 3.49-2.839 6.329-6.329 6.329s-6.329-2.839-6.329-6.329v-36.086c2.076.253 4.185.398 6.329.398s4.252-.145 6.329-.398zm-6.329-124.987c20.487 0 37.155 16.668 37.155 37.155s-16.668 37.156-37.155 37.156-37.156-16.668-37.156-37.155 16.669-37.156 37.156-37.156z"/><path d="m492.964 301.844c-8.333-8.463-18.532-14.448-29.674-17.6 14.591-20.064 23.214-44.733 23.214-71.384 0-67.08-54.573-121.652-121.652-121.652h-230.515c-19.729 0-35.779 16.051-35.779 35.78s16.05 35.779 35.779 35.779h180.067c4.139 0 7.494-3.355 7.494-7.494s-3.355-7.494-7.494-7.494h-180.067c-11.464 0-20.79-9.327-20.79-20.791s9.326-20.791 20.79-20.791h230.516c58.815 0 106.663 47.849 106.663 106.664 0 26.217-9.515 50.247-25.264 68.838-.108-.002-.214-.011-.322-.013-18.115-.314-35.254 6.572-48.31 19.34-5.05 4.938-9.22 10.515-12.454 16.538-6.58 1.276-13.367 1.96-20.314 1.96h-240.204c-37.538 0-68.078 30.54-68.078 68.078s30.54 68.078 68.078 68.078h242.232c11.464 0 20.791 9.326 20.791 20.79s-9.327 20.791-20.791 20.791h-127.003c-4.139 0-7.494 3.355-7.494 7.494s3.355 7.494 7.494 7.494h127.003c19.729 0 35.78-16.051 35.78-35.78s-16.05-35.779-35.78-35.779h-242.232c-29.274 0-53.09-23.816-53.09-53.09s23.816-53.09 53.09-53.09h240.205c4.803 0 9.54-.288 14.2-.834-1.168 4.92-1.803 9.997-1.834 15.169-.149 24.75 13.223 47.578 34.899 59.575 2.559 1.416 4.825 3.587 6.556 6.278l13.506 21.009c2.773 4.316 7.493 6.893 12.623 6.893h.002c5.13 0 9.85-2.577 12.625-6.893l13.507-21.011c1.728-2.688 4.004-4.863 6.58-6.292 21.512-11.919 34.875-34.582 34.875-59.145 0-17.852-6.899-34.692-19.428-47.415zm-22.712 93.454c-4.737 2.625-8.859 6.531-11.923 11.296l-13.542 21.011-13.506-21.011c-3.068-4.77-7.184-8.672-11.904-11.285-16.875-9.34-27.286-27.108-27.17-46.371.085-14.047 5.729-27.257 15.893-37.196 9.963-9.743 22.971-15.077 36.714-15.077.29 0 .581.002.87.007 28.518.467 51.719 24.059 51.719 52.592 0 19.115-10.403 36.755-27.151 46.034z"/><path d="m395.089 212.729c0-19.835-16.137-35.973-35.973-35.973-19.835 0-35.973 16.137-35.973 35.973s16.137 35.973 35.973 35.973 35.973-16.137 35.973-35.973zm-56.956 0c0-11.571 9.414-20.984 20.984-20.984s20.984 9.413 20.984 20.984-9.414 20.984-20.984 20.984-20.984-9.413-20.984-20.984z"/><path d="m95.516 386.707c0 19.836 16.137 35.973 35.973 35.973s35.973-16.137 35.973-35.973-16.137-35.973-35.973-35.973c-19.835 0-35.973 16.138-35.973 35.973zm56.957 0c0 11.571-9.413 20.984-20.984 20.984s-20.984-9.413-20.984-20.984 9.413-20.984 20.984-20.984 20.984 9.413 20.984 20.984z"/></svg>